<svg width="800" height="800" viewBox="0 0 800 800" fill="none" xmlns="http://www.w3.org/2000/svg">
<path d="M133.333 333.333L109.763 356.903L86.1931 333.333L109.763 309.763L133.333 333.333ZM700 600C700 618.41 685.077 633.333 666.667 633.333C648.257 633.333 633.333 618.41 633.333 600H700ZM276.43 523.57L109.763 356.903L156.904 309.763L323.57 476.43L276.43 523.57ZM109.763 309.763L276.43 143.096L323.57 190.237L156.904 356.903L109.763 309.763ZM133.333 300H466.667V366.667H133.333V300ZM700 533.333V600H633.333V533.333H700ZM466.667 300C595.533 300 700 404.466 700 533.333H633.333C633.333 441.286 558.713 366.667 466.667 366.667V300Z" fill="#5B5B5B"/>
</svg>
