<svg width="800" height="800" viewBox="0 0 800 800" fill="none" xmlns="http://www.w3.org/2000/svg">
<path d="M597.423 117.599C608.69 106.331 623.977 100 639.91 100C655.847 100 671.133 106.331 682.4 117.599C693.67 128.868 700 144.152 700 160.088C700 176.025 693.67 191.309 682.4 202.577L413.303 471.673L300 500L328.326 386.697L597.423 117.599Z" stroke="#5B5B5B" stroke-width="66.6667" stroke-linecap="round" stroke-linejoin="round"/>
<path d="M533.333 200L600 266.667" stroke="#5B5B5B" stroke-width="66.6667" stroke-linecap="round" stroke-linejoin="round"/>
<path d="M416.667 100H400C234.315 100 100 234.315 100 400C100 565.687 234.315 700 400 700C565.687 700 700 565.687 700 400V383.333" stroke="#5B5B5B" stroke-width="66.6667" stroke-linecap="round"/>
</svg>
