<svg width="800" height="800" viewBox="0 0 800 800" fill="none" xmlns="http://www.w3.org/2000/svg">
<g clip-path="url(#clip0_28994_2)">
<path d="M133.333 166.667C124.493 166.667 116.014 170.179 109.763 176.43C103.512 182.681 100 191.16 100 200V733.334C100 742.174 103.512 750.653 109.763 756.904C116.014 763.155 124.493 766.667 133.333 766.667C141.797 766.429 149.967 763.511 156.667 758.334L333.333 623.334L510 758.334C516.7 763.511 524.87 766.429 533.333 766.667C542.174 766.667 550.652 763.155 556.904 756.904C563.155 750.653 566.667 742.174 566.667 733.334V200C566.667 191.16 563.155 182.681 556.904 176.43C550.652 170.179 542.174 166.667 533.333 166.667H133.333Z" fill="white"/>
<path d="M266.667 33.3335C257.826 33.3335 249.348 36.8454 243.096 43.0966C236.845 49.3478 233.333 57.8263 233.333 66.6668V100H633.333V616.667L643.333 625C650.033 630.177 658.203 633.095 666.667 633.333C675.507 633.333 683.986 629.822 690.237 623.57C696.488 617.319 700 608.841 700 600V66.6668C700 57.8263 696.488 49.3478 690.237 43.0966C683.986 36.8454 675.507 33.3335 666.667 33.3335H266.667Z" fill="white"/>
</g>
<defs>
<clipPath id="clip0_28994_2">
<rect width="800" height="800" fill="white"/>
</clipPath>
</defs>
</svg>
