<svg width="20" height="20" viewBox="0 0 20 20" fill="none" xmlns="http://www.w3.org/2000/svg">
<path d="M9.28578 3.92864V16.0715C9.28578 16.265 9.2151 16.4324 9.07373 16.5737C8.93236 16.7151 8.76495 16.7858 8.5715 16.7858C8.37805 16.7858 8.21064 16.7151 8.06927 16.5737L4.35275 12.8572H1.42864C1.23519 12.8572 1.06778 12.7865 0.926409 12.6452C0.78504 12.5038 0.714355 12.3364 0.714355 12.1429V7.85721C0.714355 7.66376 0.78504 7.49635 0.926409 7.35498C1.06778 7.21361 1.23519 7.14293 1.42864 7.14293H4.35275L8.06927 3.42641C8.21064 3.28504 8.37805 3.21436 8.5715 3.21436C8.76495 3.21436 8.93236 3.28504 9.07373 3.42641C9.2151 3.56778 9.28578 3.73519 9.28578 3.92864Z" fill="white"/>
<line x1="11.7071" y1="7" x2="17.364" y2="12.6569" stroke="white" stroke-linecap="round"/>
<line x1="11.707" y1="12.6569" x2="17.3639" y2="7.00005" stroke="white" stroke-linecap="round"/>
</svg>
